<svg width="266" height="41" viewBox="0 0 266 41" fill="none" xmlns="http://www.w3.org/2000/svg">
<path d="M39.872 10.024C39.872 12.5413 39.168 14.8667 37.76 17C36.352 19.1333 34.0267 20.7547 30.784 21.864L38.208 41H23.936L18.304 23.272H17.6L13.824 41H0L8.64 0.359997H25.472C27.4347 0.359997 29.2907 0.487998 31.04 0.743999C32.7893 0.957333 34.304 1.42666 35.584 2.152C36.9067 2.83466 37.952 3.816 38.72 5.096C39.488 6.33333 39.872 7.976 39.872 10.024ZM21.44 19.176C22.5493 19.176 23.488 18.8133 24.256 18.088C25.0667 17.32 25.7067 16.4027 26.176 15.336C26.688 14.2693 27.0507 13.1387 27.264 11.944C27.4773 10.7067 27.584 9.64 27.584 8.744C27.584 7.63467 27.392 6.696 27.008 5.928C26.624 5.11733 25.792 4.712 24.512 4.712H21.632L18.432 19.176H21.44ZM49.14 0.359997H76.084L75.06 5.224H62.004L59.316 17.576H70.26L69.236 22.376H58.292L55.348 36.072H68.404L67.444 41H40.5L49.14 0.359997ZM77.9355 0.359997H92.5275L94.7035 27.88L108.016 0.359997H114.352L95.4075 41H80.3035L77.9355 0.359997ZM123.699 41H109.875L118.515 0.359997H132.403L123.699 41ZM139.39 0.359997H166.334L165.31 5.224H152.254L149.566 17.576H160.51L159.486 22.376H148.542L145.598 36.072H158.654L157.694 41H130.75L139.39 0.359997ZM167.93 0.359997H183.546L184.634 28.072L195.322 0.359997H207.994L209.658 28.072L220.41 0.359997H227.13L211.322 41H196.922L195.578 18.024L185.978 41H170.618L167.93 0.359997ZM248.143 13.16L257.935 0.359997H265.615L250.447 18.6L259.983 41H244.175L238.735 28.264L228.879 41H221.199L236.303 22.504L226.895 0.359997H242.703L248.143 13.16Z" fill="#F0F1FA"/>
</svg>
