<svg width="24" height="24" viewBox="0 0 24 24" fill="none" xmlns="http://www.w3.org/2000/svg">
<path d="M16.004 3.93681C14.2513 3.06616 12.2627 2.79051 10.3393 3.15164C8.41586 3.51276 6.66258 4.49097 5.34508 5.93805C4.02757 7.38513 3.21764 9.22222 3.03801 11.171C2.85837 13.1197 3.31882 15.0739 4.34959 16.7374C5.38035 18.401 6.92526 19.6832 8.75023 20.3899C10.5752 21.0965 12.5808 21.1891 14.4631 20.6535C16.3454 20.1179 18.0018 18.9834 19.1814 17.4218C20.361 15.8603 20.9994 13.9568 21 11.9998" stroke="#F0F1FA" stroke-width="2" stroke-linecap="round" stroke-linejoin="round"/>
<path d="M12 13C12.5523 13 13 12.5523 13 12C13 11.4477 12.5523 11 12 11C11.4477 11 11 11.4477 11 12C11 12.5523 11.4477 13 12 13Z" stroke="#F0F1FA" stroke-width="2" stroke-linecap="round" stroke-linejoin="round"/>
<path d="M20 5C20.5523 5 21 4.55228 21 4C21 3.44772 20.5523 3 20 3C19.4477 3 19 3.44772 19 4C19 4.55228 19.4477 5 20 5Z" stroke="#F0F1FA" stroke-width="2" stroke-linecap="round" stroke-linejoin="round"/>
<path d="M20 4L16.5 14L14 16" stroke="#F0F1FA" stroke-width="2" stroke-linecap="round" stroke-linejoin="round"/>
</svg>
