<svg width="24" height="26" viewBox="0 0 24 26" fill="none" xmlns="http://www.w3.org/2000/svg">
<path d="M15 9V4C15 3.20435 14.6839 2.44129 14.1213 1.87868C13.5587 1.31607 12.7956 1 12 1H4C3.20435 1 2.44129 1.31607 1.87868 1.87868C1.31607 2.44129 1 3.20435 1 4V22C1 22.7956 1.31607 23.5587 1.87868 24.1213C2.44129 24.6839 3.20435 25 4 25H12C12.7956 25 13.5587 24.6839 14.1213 24.1213C14.6839 23.5587 15 22.7956 15 22V17M10 9L6 13M6 13L10 17M6 13H23" stroke="#E54927" stroke-width="1.5" stroke-linecap="round" stroke-linejoin="round"/>
</svg>
