<svg width="24" height="24" viewBox="0 0 24 24" fill="none" xmlns="http://www.w3.org/2000/svg">
<path d="M16.5 8.25V6C16.5 5.40326 16.2629 4.83097 15.841 4.40901C15.419 3.98705 14.8467 3.75 14.25 3.75H6C5.40326 3.75 4.83097 3.98705 4.40901 4.40901C3.98705 4.83097 3.75 5.40326 3.75 6V14.25C3.75 14.8467 3.98705 15.419 4.40901 15.841C4.83097 16.2629 5.40326 16.5 6 16.5H8.25M16.5 8.25H18C18.5967 8.25 19.169 8.48705 19.591 8.90901C20.0129 9.33097 20.25 9.90326 20.25 10.5V18C20.25 18.5967 20.0129 19.169 19.591 19.591C19.169 20.0129 18.5967 20.25 18 20.25H10.5C9.90326 20.25 9.33097 20.0129 8.90901 19.591C8.48705 19.169 8.25 18.5967 8.25 18V16.5M16.5 8.25H10.5C9.90326 8.25 9.33097 8.48705 8.90901 8.90901C8.48705 9.33097 8.25 9.90326 8.25 10.5V16.5" stroke="#F0F1FA" stroke-width="1.5" stroke-linecap="round" stroke-linejoin="round"/>
</svg>
