<svg width="24" height="24" viewBox="0 0 24 24" fill="none" xmlns="http://www.w3.org/2000/svg">
<path d="M6 6.878V6C6 5.40326 6.23705 4.83097 6.65901 4.40901C7.08097 3.98705 7.65326 3.75 8.25 3.75H15.75C16.3467 3.75 16.919 3.98705 17.341 4.40901C17.7629 4.83097 18 5.40326 18 6V6.878M6 6.878C6.235 6.795 6.487 6.75 6.75 6.75H17.25C17.513 6.75 17.765 6.795 18 6.878M6 6.878C5.56121 7.03313 5.18133 7.32052 4.91269 7.70056C4.64404 8.0806 4.49986 8.5346 4.5 9V9.878M18 6.878C18.4388 7.03313 18.8187 7.32052 19.0873 7.70056C19.356 8.0806 19.5001 8.5346 19.5 9V9.878M4.5 9.878C4.735 9.795 4.987 9.75 5.25 9.75H18.75C19.0055 9.7497 19.2591 9.79299 19.5 9.878M4.5 9.878C3.626 10.187 3 11.02 3 12V18C3 18.5967 3.23705 19.169 3.65901 19.591C4.08097 20.0129 4.65326 20.25 5.25 20.25H18.75C19.3467 20.25 19.919 20.0129 20.341 19.591C20.7629 19.169 21 18.5967 21 18V12C21.0001 11.5346 20.856 11.0806 20.5873 10.7006C20.3187 10.3205 19.9388 10.0331 19.5 9.878" stroke="#F0F1FA" stroke-width="1.5" stroke-linecap="round" stroke-linejoin="round"/>
</svg>
