<svg width="18" height="18" viewBox="0 0 18 18" fill="none" xmlns="http://www.w3.org/2000/svg">
<path fill-rule="evenodd" clip-rule="evenodd" d="M12.1505 4.4442C13.2625 5.08654 14.1516 6.05336 14.6987 7.21512C15.2459 8.37688 15.425 9.6781 15.2119 10.9445C14.9989 12.2108 14.404 13.3819 13.5069 14.3007C12.6097 15.2195 11.4532 15.8422 10.1923 16.0854C8.9314 16.3286 7.62628 16.1807 6.45178 15.6614C5.27729 15.1421 4.28952 14.2764 3.62081 13.1801C2.9521 12.0838 2.63438 10.8093 2.71022 9.52736C2.78605 8.24544 3.25182 7.01732 4.04513 6.0075C4.22693 5.7762 4.57613 5.8113 4.75883 6.0426C5.00903 6.3594 5.29343 6.6474 5.60753 6.9012C5.90633 7.1433 6.31493 6.8571 6.30323 6.4728C6.27449 5.6159 6.45099 4.76455 6.81803 3.9897C7.29839 2.97843 8.07994 2.1406 9.05543 1.5912C9.27773 1.4652 9.55043 1.5768 9.66473 1.8054C10.2154 2.91057 11.0802 3.82854 12.1505 4.4442ZM12.6005 10.8C12.6005 11.7548 12.2212 12.6705 11.5461 13.3456C10.871 14.0207 9.95531 14.4 9.00053 14.4C7.27883 14.4 5.83253 13.1418 5.48153 11.5362C5.39783 11.1501 5.87753 10.9575 6.21413 11.1645C6.6531 11.4338 7.14422 11.6068 7.65503 11.6721C7.92773 11.7063 8.13293 11.4561 8.11403 11.1825C8.01508 9.82023 8.43821 8.47136 9.29753 7.4097C9.34308 7.35281 9.40322 7.30937 9.47154 7.28401C9.53986 7.25865 9.61379 7.25232 9.68543 7.2657C10.506 7.4249 11.2457 7.86462 11.7775 8.50946C12.3094 9.15431 12.6004 9.96411 12.6005 10.8Z" fill="#E54927"/>
</svg>
