<svg width="27" height="31" viewBox="0 0 27 31" fill="none" xmlns="http://www.w3.org/2000/svg">
<g filter="url(#filter0_d_303_56)">
<path fill-rule="evenodd" clip-rule="evenodd" d="M21.9522 1.65103C22.0448 1.72099 22.12 1.81151 22.1717 1.91546C22.2234 2.0194 22.2503 2.13393 22.2502 2.25003V16.303C22.2501 16.9549 22.0376 17.589 21.645 18.1093C21.2524 18.6297 20.701 19.008 20.0742 19.187L18.7542 19.564C18.4304 19.6612 18.0905 19.6931 17.7542 19.6579C17.4179 19.6226 17.092 19.521 16.7954 19.3588C16.4987 19.1965 16.2373 18.977 16.0262 18.7129C15.815 18.4488 15.6585 18.1454 15.5656 17.8204C15.4727 17.4953 15.4453 17.155 15.4849 16.8192C15.5246 16.4834 15.6306 16.1589 15.7967 15.8644C15.9628 15.5699 16.1858 15.3114 16.4526 15.1038C16.7195 14.8962 17.0249 14.7436 17.3512 14.655L19.6622 13.995C19.9756 13.9055 20.2513 13.7163 20.4476 13.4562C20.6439 13.196 20.7501 12.879 20.7502 12.553V6.99403L11.7502 9.56603V19.303C11.7501 19.9549 11.5376 20.589 11.145 21.1093C10.7524 21.6297 10.201 22.008 9.57421 22.187L8.25421 22.564C7.92997 22.6625 7.58937 22.6955 7.25225 22.6611C6.91514 22.6266 6.58826 22.5253 6.29068 22.3632C5.9931 22.2011 5.73077 21.9814 5.51898 21.7168C5.3072 21.4523 5.1502 21.1482 5.05714 20.8224C4.96408 20.4966 4.93682 20.1554 4.97695 19.819C5.01708 19.4825 5.1238 19.1573 5.29089 18.8625C5.45797 18.5677 5.68207 18.3091 5.95013 18.1018C6.21819 17.8945 6.52484 17.7426 6.85221 17.655L9.16221 16.995C9.4756 16.9055 9.7513 16.7163 9.94761 16.4562C10.1439 16.196 10.2501 15.879 10.2502 15.553V5.25003C10.2502 5.08706 10.3033 4.92855 10.4015 4.79846C10.4997 4.66837 10.6375 4.57379 10.7942 4.52903L21.2942 1.52903C21.4058 1.49703 21.5234 1.4914 21.6376 1.51257C21.7518 1.53374 21.8595 1.58114 21.9522 1.65103Z" fill="#F0F1FA"/>
</g>
<defs>
<filter id="filter0_d_303_56" x="-2" y="0" width="32" height="32" filterUnits="userSpaceOnUse" color-interpolation-filters="sRGB">
<feFlood flood-opacity="0" result="BackgroundImageFix"/>
<feColorMatrix in="SourceAlpha" type="matrix" values="0 0 0 0 0 0 0 0 0 0 0 0 0 0 0 0 0 0 127 0" result="hardAlpha"/>
<feOffset dy="4"/>
<feGaussianBlur stdDeviation="2"/>
<feComposite in2="hardAlpha" operator="out"/>
<feColorMatrix type="matrix" values="0 0 0 0 0 0 0 0 0 0 0 0 0 0 0 0 0 0 0.25 0"/>
<feBlend mode="normal" in2="BackgroundImageFix" result="effect1_dropShadow_303_56"/>
<feBlend mode="normal" in="SourceGraphic" in2="effect1_dropShadow_303_56" result="shape"/>
</filter>
</defs>
</svg>
