<svg width="18" height="18" viewBox="0 0 18 18" fill="none" xmlns="http://www.w3.org/2000/svg">
<path fill-rule="evenodd" clip-rule="evenodd" d="M6.74959 3.375C6.87182 3.37503 6.99071 3.41486 7.08827 3.48847C7.18584 3.56209 7.25677 3.66548 7.29034 3.783L7.90009 5.9175C8.03138 6.37719 8.27768 6.79582 8.61572 7.13387C8.95377 7.47192 9.37241 7.71821 9.83209 7.8495L11.9666 8.45925C12.084 8.49289 12.1873 8.56386 12.2609 8.66142C12.3344 8.75898 12.3742 8.87783 12.3742 9C12.3742 9.12217 12.3344 9.24102 12.2609 9.33858C12.1873 9.43614 12.084 9.5071 11.9666 9.54075L9.83209 10.1505C9.37241 10.2818 8.95377 10.5281 8.61572 10.8661C8.27768 11.2042 8.03138 11.6228 7.90009 12.0825L7.29034 14.217C7.2567 14.3344 7.18573 14.4377 7.08817 14.5113C6.99061 14.5848 6.87176 14.6246 6.74959 14.6246C6.62742 14.6246 6.50857 14.5848 6.41102 14.5113C6.31346 14.4377 6.24249 14.3344 6.20884 14.217L5.59909 12.0825C5.46781 11.6228 5.22151 11.2042 4.88346 10.8661C4.54542 10.5281 4.12678 10.2818 3.66709 10.1505L1.53259 9.54075C1.41515 9.5071 1.31185 9.43614 1.23831 9.33858C1.16478 9.24102 1.125 9.12217 1.125 9C1.125 8.87783 1.16478 8.75898 1.23831 8.66142C1.31185 8.56386 1.41515 8.49289 1.53259 8.45925L3.66709 7.8495C4.12678 7.71821 4.54542 7.47192 4.88346 7.13387C5.22151 6.79582 5.46781 6.37719 5.59909 5.9175L6.20884 3.783C6.24241 3.66548 6.31335 3.56209 6.41092 3.48847C6.50848 3.41486 6.62737 3.37503 6.74959 3.375ZM13.4996 1.125C13.6251 1.12493 13.747 1.16682 13.8459 1.24401C13.9449 1.32121 14.0151 1.42926 14.0456 1.551L14.2391 2.328C14.326 2.674 14.5051 2.98995 14.7574 3.2422C15.0096 3.49446 15.3256 3.67358 15.6716 3.7605L16.4486 3.954C16.5706 3.98421 16.6789 4.05439 16.7563 4.15335C16.8338 4.25231 16.8759 4.37434 16.8759 4.5C16.8759 4.62565 16.8338 4.74769 16.7563 4.84665C16.6789 4.94561 16.5706 5.01579 16.4486 5.046L15.6716 5.2395C15.3256 5.32641 15.0096 5.50554 14.7574 5.7578C14.5051 6.01005 14.326 6.326 14.2391 6.672L14.0456 7.449C14.0154 7.57097 13.9452 7.67931 13.8462 7.75675C13.7473 7.83418 13.6252 7.87626 13.4996 7.87626C13.3739 7.87626 13.2519 7.83418 13.1529 7.75675C13.054 7.67931 12.9838 7.57097 12.9536 7.449L12.7601 6.672C12.6736 6.32582 12.4946 6.00967 12.2422 5.75736C11.9899 5.50504 11.6738 5.32604 11.3276 5.2395L10.5506 5.046C10.4286 5.01579 10.3203 4.94561 10.2428 4.84665C10.1654 4.74769 10.1233 4.62565 10.1233 4.5C10.1233 4.37434 10.1654 4.25231 10.2428 4.15335C10.3203 4.05439 10.4286 3.98421 10.5506 3.954L11.3276 3.7605C11.6738 3.67396 11.9899 3.49496 12.2422 3.24264C12.4946 2.99033 12.6736 2.67418 12.7601 2.328L12.9536 1.551C12.984 1.42926 13.0543 1.32121 13.1533 1.24401C13.2522 1.16682 13.3741 1.12493 13.4996 1.125ZM12.3746 11.25C12.4927 11.2499 12.6079 11.2871 12.7037 11.3561C12.7996 11.4252 12.8713 11.5227 12.9086 11.6347L13.2041 12.522C13.3166 12.8572 13.5791 13.1212 13.9151 13.233L14.8023 13.5292C14.9141 13.5668 15.0112 13.6384 15.08 13.7341C15.1488 13.8298 15.1858 13.9446 15.1858 14.0625C15.1858 14.1804 15.1488 14.2952 15.08 14.3909C15.0112 14.4866 14.9141 14.5582 14.8023 14.5957L13.9151 14.892C13.7496 14.9472 13.5991 15.0402 13.4757 15.1636C13.3523 15.287 13.2593 15.4375 13.2041 15.603L12.9078 16.4902C12.8703 16.602 12.7987 16.6991 12.703 16.7679C12.6073 16.8367 12.4924 16.8737 12.3746 16.8737C12.2567 16.8737 12.1419 16.8367 12.0462 16.7679C11.9505 16.6991 11.8789 16.602 11.8413 16.4902L11.5451 15.603C11.4898 15.4375 11.3968 15.287 11.2734 15.1636C11.15 15.0402 10.9996 14.9472 10.8341 14.892L9.94684 14.5957C9.83512 14.5582 9.738 14.4866 9.66919 14.3909C9.60039 14.2952 9.56337 14.1804 9.56337 14.0625C9.56337 13.9446 9.60039 13.8298 9.66919 13.7341C9.738 13.6384 9.83512 13.5668 9.94684 13.5292L10.8341 13.233C10.9996 13.1778 11.15 13.0848 11.2734 12.9614C11.3968 12.838 11.4898 12.6875 11.5451 12.522L11.8413 11.6347C11.8786 11.5228 11.9502 11.4254 12.0459 11.3563C12.1416 11.2873 12.2566 11.2501 12.3746 11.25Z" fill="#F4D35E"/>
</svg>
