<svg width="18" height="18" viewBox="0 0 18 18" fill="none" xmlns="http://www.w3.org/2000/svg">
<path fill-rule="evenodd" clip-rule="evenodd" d="M7.146 1.28861C7.22484 1.36743 7.27848 1.4679 7.30012 1.57727C7.32175 1.68664 7.3104 1.79996 7.2675 1.90286C6.92462 2.72577 6.74871 3.60863 6.75 4.50011C6.75 6.29032 7.46116 8.00721 8.72703 9.27308C9.9929 10.539 11.7098 11.2501 13.5 11.2501C14.3915 11.2514 15.2743 11.0755 16.0972 10.7326C16.2001 10.6898 16.3133 10.6785 16.4226 10.7001C16.5319 10.7216 16.6323 10.7752 16.7111 10.8539C16.7899 10.9326 16.8435 11.033 16.8652 11.1423C16.8869 11.2515 16.8757 11.3647 16.833 11.4676C16.2345 12.9025 15.2248 14.1283 13.931 14.9905C12.6372 15.8526 11.1172 16.3127 9.5625 16.3126C5.21325 16.3126 1.6875 12.7869 1.6875 8.43761C1.6875 5.16161 3.68775 2.35361 6.5325 1.16711C6.6353 1.12438 6.74848 1.11311 6.85769 1.13474C6.9669 1.15637 7.06724 1.20992 7.146 1.28861Z" fill="#3C798B"/>
</svg>
