<svg width="24" height="24" viewBox="0 0 24 24" fill="none" xmlns="http://www.w3.org/2000/svg">
<path d="M17.9825 18.7252C17.2838 17.8001 16.3798 17.0498 15.3417 16.5336C14.3036 16.0173 13.1599 15.7491 12.0005 15.7502C10.8411 15.7491 9.69739 16.0173 8.65932 16.5336C7.62125 17.0498 6.71724 17.8001 6.0185 18.7252M17.9825 18.7252C19.346 17.5124 20.3076 15.9137 20.7417 14.1413C21.1758 12.3688 21.0608 10.5063 20.412 8.80067C19.7632 7.09506 18.6112 5.62697 17.1089 4.59109C15.6066 3.55521 13.8248 3.00049 12 3.00049C10.1752 3.00049 8.39343 3.55521 6.89111 4.59109C5.38878 5.62697 4.23683 7.09506 3.58804 8.80067C2.93924 10.5063 2.82425 12.3688 3.25832 14.1413C3.69239 15.9137 4.655 17.5124 6.0185 18.7252M17.9825 18.7252C16.3365 20.1934 14.2061 21.0033 12.0005 21.0002C9.79453 21.0036 7.66474 20.1936 6.0185 18.7252M15.0005 9.75019C15.0005 10.5458 14.6844 11.3089 14.1218 11.8715C13.5592 12.4341 12.7962 12.7502 12.0005 12.7502C11.2049 12.7502 10.4418 12.4341 9.87918 11.8715C9.31657 11.3089 9.0005 10.5458 9.0005 9.75019C9.0005 8.95454 9.31657 8.19148 9.87918 7.62887C10.4418 7.06626 11.2049 6.75019 12.0005 6.75019C12.7962 6.75019 13.5592 7.06626 14.1218 7.62887C14.6844 8.19148 15.0005 8.95454 15.0005 9.75019Z" stroke="#121212" stroke-width="1.5" stroke-linecap="round" stroke-linejoin="round"/>
</svg>
