<svg width="24" height="24" viewBox="0 0 24 24" fill="none" xmlns="http://www.w3.org/2000/svg">
<path d="M9.9996 2.5C11.3975 2.49994 12.7677 2.89061 13.9555 3.62792C15.1432 4.36523 16.1012 5.41983 16.7214 6.6727C17.3416 7.92558 17.5993 9.32686 17.4654 10.7184C17.3315 12.11 16.8113 13.4364 15.9636 14.548L20.7066 19.293C20.8859 19.473 20.99 19.7144 20.9978 19.9684C21.0056 20.2223 20.9164 20.4697 20.7483 20.6603C20.5803 20.8508 20.346 20.9703 20.0931 20.9944C19.8402 21.0185 19.5876 20.9454 19.3866 20.79L19.2926 20.707L14.5476 15.964C13.6006 16.6861 12.4952 17.1723 11.323 17.3824C10.1508 17.5925 8.94543 17.5204 7.8066 17.1721C6.66777 16.8238 5.62825 16.2094 4.77406 15.3795C3.91986 14.5497 3.27555 13.5285 2.89443 12.4002C2.51331 11.2719 2.40635 10.0691 2.5824 8.89131C2.75844 7.7135 3.21243 6.59454 3.9068 5.62703C4.60116 4.65951 5.51594 3.87126 6.57544 3.32749C7.63495 2.78372 8.80871 2.50006 9.9996 2.5ZM9.9996 4.5C8.54091 4.5 7.14196 5.07946 6.11051 6.11091C5.07906 7.14236 4.4996 8.54131 4.4996 10C4.4996 11.4587 5.07906 12.8576 6.11051 13.8891C7.14196 14.9205 8.54091 15.5 9.9996 15.5C11.4583 15.5 12.8572 14.9205 13.8887 13.8891C14.9201 12.8576 15.4996 11.4587 15.4996 10C15.4996 8.54131 14.9201 7.14236 13.8887 6.11091C12.8572 5.07946 11.4583 4.5 9.9996 4.5Z" fill="#121212"/>
</svg>
