<svg width="18" height="18" viewBox="0 0 18 18" fill="none" xmlns="http://www.w3.org/2000/svg">
<path fill-rule="evenodd" clip-rule="evenodd" d="M7.87489 0.899902C7.21848 0.899902 6.58895 1.16066 6.1248 1.62481C5.66065 2.08897 5.39989 2.71849 5.39989 3.3749V3.7736C4.68793 3.84227 3.97813 3.93171 3.27139 4.0418C3.18251 4.05391 3.09694 4.08361 3.01967 4.12917C2.94241 4.17472 2.87499 4.23522 2.82137 4.30713C2.76776 4.37904 2.72901 4.46091 2.70739 4.54796C2.68578 4.63502 2.68173 4.72551 2.69548 4.81414C2.70924 4.90278 2.74052 4.98778 2.78751 5.06419C2.83449 5.1406 2.89623 5.20688 2.96912 5.25915C3.04201 5.31142 3.12459 5.34865 3.21203 5.36864C3.29947 5.38864 3.39002 5.391 3.47839 5.3756L3.61249 5.3558L4.36939 14.822C4.41894 15.4423 4.70032 16.0211 5.15748 16.4433C5.61464 16.8654 6.21404 17.0998 6.83629 17.0999H11.1626C11.7848 17.1001 12.3843 16.8659 12.8417 16.4439C13.299 16.0219 13.5806 15.4432 13.6304 14.8229L14.3873 5.3549L14.5214 5.3756C14.6966 5.39947 14.8742 5.35362 15.016 5.24791C15.1578 5.14219 15.2524 4.98506 15.2795 4.8103C15.3066 4.63554 15.2641 4.45712 15.161 4.3134C15.058 4.16969 14.9026 4.07217 14.7284 4.0418C14.0216 3.93181 13.3118 3.84237 12.5999 3.7736V3.3749C12.5999 2.71849 12.3391 2.08897 11.875 1.62481C11.4108 1.16066 10.7813 0.899902 10.1249 0.899902H7.87489ZM8.99989 3.5999C9.75589 3.5999 10.5056 3.6224 11.2499 3.6674V3.3749C11.2499 2.7539 10.7459 2.2499 10.1249 2.2499H7.87489C7.25389 2.2499 6.74989 2.7539 6.74989 3.3749V3.6674C7.49419 3.6224 8.24389 3.5999 8.99989 3.5999ZM7.72189 6.9479C7.71473 6.76888 7.63674 6.60004 7.50509 6.47851C7.37344 6.35699 7.19891 6.29274 7.01989 6.2999C6.84087 6.30706 6.67202 6.38505 6.5505 6.5167C6.42897 6.64835 6.36473 6.82288 6.37189 7.0019L6.64189 13.7519C6.64543 13.8405 6.6664 13.9276 6.7036 14.0082C6.7408 14.0887 6.7935 14.1611 6.85868 14.2213C6.92387 14.2815 7.00027 14.3282 7.08352 14.3589C7.16677 14.3895 7.25524 14.4034 7.34389 14.3999C7.43253 14.3964 7.51961 14.3754 7.60014 14.3382C7.68068 14.301 7.7531 14.2483 7.81328 14.1831C7.87345 14.1179 7.92019 14.0415 7.95084 13.9583C7.98148 13.875 7.99543 13.7865 7.99189 13.6979L7.72189 6.9479ZM11.6279 7.0019C11.6314 6.91326 11.6175 6.82479 11.5868 6.74154C11.5562 6.65828 11.5094 6.58188 11.4493 6.5167C11.3891 6.45151 11.3167 6.39881 11.2361 6.36162C11.1556 6.32442 11.0685 6.30345 10.9799 6.2999C10.8009 6.29274 10.6263 6.35699 10.4947 6.47851C10.363 6.60004 10.285 6.76888 10.2779 6.9479L10.0079 13.6979C10.0043 13.7865 10.0183 13.875 10.0489 13.9583C10.0796 14.0415 10.1263 14.1179 10.1865 14.1831C10.2467 14.2483 10.3191 14.301 10.3996 14.3382C10.4802 14.3754 10.5672 14.3964 10.6559 14.3999C10.7445 14.4034 10.833 14.3895 10.9163 14.3589C10.9995 14.3282 11.0759 14.2815 11.1411 14.2213C11.2063 14.1611 11.259 14.0887 11.2962 14.0082C11.3334 13.9276 11.3543 13.8405 11.3579 13.7519L11.6279 7.0019Z" fill="#777777"/>
</svg>
